<?xml version="1.0" standalone="no"?>
<!DOCTYPE svg PUBLIC "-//W3C//DTD SVG 20010904//EN"
 "http://www.w3.org/TR/2001/REC-SVG-20010904/DTD/svg10.dtd">
<svg version="1.0" xmlns="http://www.w3.org/2000/svg"
 width="2560.000000pt" height="2560.000000pt" viewBox="0 0 2560.000000 2560.000000"
 preserveAspectRatio="xMidYMid meet">
<metadata>
Created by potrace 1.14, written by Peter Selinger 2001-2017
</metadata>
<g transform="translate(0.000000,2560.000000) scale(0.100000,-0.100000)"
fill="#000000" stroke="none">
<path d="M8405 19096 c-223 -73 -449 -195 -595 -321 -61 -52 -205 -198 -246
-250 -99 -123 -198 -301 -253 -454 -16 -46 -32 -85 -34 -87 -2 -3 -51 18 -108
45 -245 115 -322 151 -326 151 -2 0 -23 9 -46 19 -158 72 -526 225 -702 291
-60 23 -137 52 -170 65 -261 102 -841 303 -849 294 -8 -8 24 -169 83 -419 271
-1145 631 -1910 1127 -2390 238 -230 484 -386 794 -500 63 -24 117 -45 120
-47 2 -2 -2 -8 -10 -13 -162 -96 -852 -555 -898 -598 -7 -6 -23 -17 -35 -24
-55 -29 -835 -603 -982 -722 -28 -23 -51 -45 -51 -51 -1 -5 31 -22 70 -36 629
-227 1113 -347 1676 -415 179 -22 682 -25 830 -6 488 65 870 193 1230 410 143
86 411 273 458 319 8 7 30 26 50 41 21 15 44 34 52 42 8 9 31 28 50 44 69 56
217 194 505 472 127 122 248 239 270 259 22 21 69 65 105 99 36 33 94 86 130
116 36 30 67 57 70 61 3 3 48 39 100 81 296 234 570 377 875 457 88 23 307 51
398 51 l59 0 -7 -62 c-23 -212 -102 -428 -219 -602 -25 -38 -46 -74 -46 -80 0
-6 18 -23 39 -38 l38 -27 20 22 c85 97 191 311 236 477 94 343 57 721 -98
1030 -49 96 -95 167 -171 260 l-65 80 24 43 c34 58 51 138 43 200 -12 89 -46
144 -174 273 -162 163 -144 154 -182 99 -68 -98 -86 -210 -51 -310 25 -71 15
-66 -98 50 -47 48 -105 98 -130 113 -42 25 -55 27 -151 27 -91 0 -111 -3 -150
-24 -50 -26 -90 -59 -90 -74 0 -6 57 -67 128 -135 143 -141 197 -174 297 -180
71 -4 151 21 221 68 25 18 47 30 49 28 53 -48 164 -162 162 -164 -2 -2 -28 6
-58 17 -74 29 -167 21 -247 -21 -68 -35 -92 -53 -92 -69 0 -6 57 -68 126 -137
153 -153 199 -179 314 -179 49 0 90 6 119 18 24 10 47 14 52 10 16 -16 58
-110 88 -196 45 -129 71 -272 71 -391 l-1 -101 -36 75 c-20 41 -39 77 -43 80
-3 3 -21 28 -40 55 -128 191 -390 371 -666 460 -203 66 -313 80 -619 80 -280
0 -336 -5 -590 -51 -233 -42 -428 -95 -711 -190 -135 -46 -160 -51 -166 -34
-1 5 -80 88 -173 182 -123 125 -189 201 -237 273 -315 475 -468 956 -468 1477
0 226 29 487 65 581 8 20 -4 21 -60 3z"/>
<path d="M11775 13253 c-75 -7 -260 -43 -340 -67 -157 -46 -290 -111 -404
-197 -199 -149 -320 -314 -400 -542 -68 -194 -81 -304 -84 -707 l-2 -315 -465
-5 -465 -5 0 -565 0 -565 468 -3 467 -2 0 -1825 0 -1825 645 0 645 0 0 1825 0
1825 413 2 412 3 0 565 0 565 -412 3 -413 2 0 213 c0 231 9 287 54 353 14 21
44 51 67 66 83 55 105 58 550 58 l408 1 3 32 c2 18 2 276 0 575 l-2 542 -553
-2 c-303 -1 -570 -3 -592 -5z"/>
<path d="M7640 12956 c0 -80 -4 -147 -9 -151 -5 -3 -16 3 -23 12 -30 40 -80
58 -163 58 -70 0 -86 -4 -129 -29 -27 -16 -60 -41 -72 -55 -63 -71 -95 -208
-74 -316 29 -150 111 -239 237 -260 55 -9 143 10 188 41 44 30 45 30 45 -2 0
-23 3 -25 43 -22 l42 3 0 430 0 430 -42 3 -43 3 0 -145z m-85 -194 c58 -41 76
-79 82 -175 9 -142 -15 -210 -94 -265 -55 -39 -162 -26 -220 25 -86 76 -91
295 -9 388 60 70 163 81 241 27z"/>
<path d="M5324 13064 c-47 -17 -115 -77 -132 -117 -19 -43 -15 -132 7 -175 18
-34 34 -48 111 -94 14 -8 81 -35 149 -59 97 -34 134 -53 168 -84 40 -36 45
-45 46 -87 2 -58 -21 -94 -84 -126 -39 -21 -54 -23 -130 -19 -69 3 -93 9 -126
30 -45 29 -75 71 -94 135 -12 42 -13 43 -53 40 l-41 -3 2 -41 c4 -93 78 -187
178 -226 95 -37 238 -32 325 12 105 54 150 182 99 287 -36 75 -103 117 -293
184 -60 22 -124 51 -142 64 -60 45 -55 132 9 177 43 30 169 38 218 13 45 -24
84 -70 98 -117 13 -43 11 -42 63 -26 37 11 38 13 32 42 -8 38 -49 104 -83 134
-54 47 -111 67 -201 69 -56 2 -99 -3 -126 -13z"/>
<path d="M7893 13065 c-2 -7 -3 -30 -1 -51 3 -37 5 -39 40 -40 52 -2 60 7 56
57 l-3 44 -43 1 c-27 1 -46 -4 -49 -11z"/>
<path d="M9458 12938 l-3 -73 -47 -3 -48 -3 0 -39 0 -39 48 -3 47 -3 3 -234
c2 -216 4 -236 23 -262 23 -33 80 -52 142 -47 42 3 42 3 42 43 l0 39 -45 4
c-25 2 -51 8 -57 14 -10 8 -13 66 -13 229 l0 218 73 3 72 3 3 37 3 37 -78 3
-78 3 -3 73 -3 72 -39 0 -39 0 -3 -72z"/>
<path d="M6721 12869 c-18 -6 -51 -21 -72 -35 l-39 -24 0 25 c0 23 -4 25 -45
25 l-45 0 0 -315 0 -315 45 0 45 0 0 215 c0 231 6 267 53 307 32 29 61 38 120
38 67 0 112 -27 137 -83 17 -37 20 -67 20 -259 l0 -218 45 0 45 0 0 223 c0
231 -6 276 -43 333 -44 68 -178 110 -266 83z"/>
<path d="M8302 12861 c-66 -23 -114 -68 -150 -141 -25 -51 -27 -65 -27 -175 0
-102 3 -127 22 -165 52 -110 139 -164 263 -164 84 1 152 28 202 81 30 32 73
132 61 143 -4 4 -22 10 -40 13 -30 6 -34 4 -52 -36 -24 -51 -36 -66 -79 -96
-29 -20 -42 -23 -102 -19 -79 4 -108 20 -154 86 -26 37 -30 52 -34 131 -7 142
28 220 119 261 50 22 78 24 134 9 49 -14 110 -75 119 -119 6 -32 7 -32 48 -26
23 4 44 9 46 11 2 2 -2 21 -8 42 -47 145 -211 218 -368 164z"/>
<path d="M8983 12870 c-90 -18 -158 -73 -184 -149 -13 -38 -7 -47 41 -56 33
-6 36 -4 55 36 24 51 60 79 111 88 85 15 157 -22 162 -83 5 -62 -7 -70 -216
-136 -49 -16 -88 -36 -115 -61 l-42 -37 0 -78 c0 -93 15 -121 85 -156 34 -17
62 -23 115 -23 73 1 117 16 163 58 l22 20 0 -31 c0 -31 1 -32 45 -32 l45 0 -2
253 c-3 248 -3 253 -28 295 -42 71 -156 112 -257 92z m197 -372 c0 -133 -59
-198 -179 -198 -85 0 -120 28 -121 97 0 36 5 46 33 67 17 13 64 33 102 44 93
26 118 37 134 56 22 27 31 8 31 -66z"/>
<path d="M5843 12848 c3 -7 42 -101 87 -208 46 -107 98 -232 116 -277 l34 -83
-61 -147 c-34 -82 -64 -154 -66 -161 -4 -10 6 -12 42 -10 l47 3 40 95 c22 52
61 147 88 210 26 63 64 156 85 205 20 50 45 108 55 130 29 66 100 241 100 248
0 4 -20 7 -44 7 -42 0 -44 -1 -60 -42 -63 -161 -172 -418 -177 -418 -4 0 -18
28 -32 63 -74 182 -148 360 -157 377 -8 16 -21 20 -56 20 -33 0 -45 -4 -41
-12z"/>
<path d="M7897 12853 c-4 -3 -7 -145 -7 -315 l0 -308 45 0 45 0 0 315 0 315
-38 0 c-21 0 -42 -3 -45 -7z"/>
<path d="M13600 12020 l0 -600 -332 -2 -333 -3 -3 -567 -2 -568 334 0 335 0 4
-1202 c3 -1073 5 -1214 21 -1308 35 -221 80 -371 152 -510 146 -283 385 -461
747 -554 246 -64 412 -78 944 -80 l438 -1 3 616 2 616 -352 5 c-286 4 -367 8
-426 22 -143 34 -213 113 -232 262 -7 51 -10 438 -8 1104 l3 1025 593 3 592 2
0 570 0 570 -1042 1 c-574 1 -1029 4 -1013 6 90 11 241 49 320 80 258 102 425
295 495 573 31 124 40 211 40 379 l0 161 -640 0 -640 0 0 -600z"/>
<path d="M7210 11544 c-589 -72 -1061 -300 -1415 -685 -92 -101 -116 -130
-179 -217 -203 -282 -345 -616 -420 -987 -76 -376 -76 -906 0 -1269 71 -344
196 -649 377 -922 102 -154 135 -193 286 -344 329 -328 726 -524 1226 -607
140 -23 601 -26 735 -4 509 82 874 250 1194 551 85 80 276 311 276 334 0 3 15
29 34 58 94 148 202 411 250 608 26 111 41 200 34 200 -12 0 -365 61 -379 66
-9 2 -68 13 -130 24 -153 26 -325 56 -431 74 -49 9 -127 23 -174 31 -48 9 -89
13 -92 10 -3 -3 -16 -47 -29 -97 -74 -289 -262 -520 -513 -627 -110 -48 -187
-62 -360 -68 -134 -5 -182 -2 -250 11 -229 47 -413 164 -553 351 -136 183
-220 415 -253 702 -19 164 -14 504 9 648 66 398 229 684 486 850 155 100 299
139 516 139 298 -1 502 -79 678 -258 108 -110 197 -276 238 -441 12 -50 25
-94 29 -98 4 -5 99 7 211 27 112 19 283 49 379 65 96 17 209 37 250 46 41 8
129 24 195 35 188 32 175 28 175 61 0 44 -65 293 -105 406 -48 132 -135 307
-212 425 -34 53 -69 103 -75 110 -7 7 -40 46 -72 86 -153 189 -408 384 -656
500 -168 78 -383 143 -605 183 -99 18 -166 22 -380 24 -143 2 -276 1 -295 -1z"/>
<path d="M18087 11535 c-586 -80 -1092 -360 -1444 -800 -162 -203 -262 -381
-356 -631 -136 -368 -191 -678 -191 -1084 0 -313 23 -497 94 -780 70 -277 142
-453 274 -675 303 -509 780 -864 1351 -1003 235 -58 316 -67 600 -67 291 0
389 11 630 70 446 110 831 349 1086 675 24 30 46 57 50 60 4 3 37 52 74 110
92 140 174 315 229 485 46 143 91 338 82 360 -2 7 -24 15 -48 17 -39 4 -349
58 -708 124 -74 13 -164 29 -200 35 -36 6 -98 17 -139 25 -107 20 -120 19
-126 -13 -15 -75 -60 -216 -89 -278 -139 -299 -374 -458 -731 -496 -124 -13
-249 -4 -370 26 -235 60 -405 182 -539 388 -161 247 -229 523 -229 937 0 317
36 523 131 750 126 301 346 499 639 576 84 22 120 26 253 26 129 1 171 -3 250
-22 273 -66 447 -199 580 -445 31 -57 93 -233 105 -297 4 -23 13 -38 22 -38 7
0 105 16 216 36 111 19 290 50 397 69 237 42 525 93 564 101 28 6 28 7 22 58
-30 228 -168 587 -306 796 -40 62 -82 122 -90 130 -3 3 -23 28 -44 55 -69 88
-228 239 -331 316 -293 218 -635 349 -1049 404 -145 19 -519 19 -659 0z"/>
</g>
</svg>
